<svg xmlns="http://www.w3.org/2000/svg" viewBox="0 0 64 64">
    <defs>
        <linearGradient id="logoGradient" x1="0%" y1="0%" x2="100%" y2="100%">
            <stop offset="0%" style="stop-color:#667eea"/>
            <stop offset="100%" style="stop-color:#764ba2"/>
        </linearGradient>
    </defs>
    <!-- Central hub node -->
    <circle cx="32" cy="32" r="8" fill="url(#logoGradient)"/>
    <!-- Primary connections -->
    <line x1="32" y1="24" x2="32" y2="8" stroke="url(#logoGradient)" stroke-width="2" stroke-linecap="round"/>
    <line x1="32" y1="40" x2="32" y2="56" stroke="url(#logoGradient)" stroke-width="2" stroke-linecap="round"/>
    <line x1="24" y1="32" x2="8" y2="32" stroke="url(#logoGradient)" stroke-width="2" stroke-linecap="round"/>
    <line x1="40" y1="32" x2="56" y2="32" stroke="url(#logoGradient)" stroke-width="2" stroke-linecap="round"/>
    <!-- Cardinal direction nodes -->
    <circle cx="32" cy="8" r="4" fill="url(#logoGradient)"/>
    <circle cx="32" cy="56" r="4" fill="url(#logoGradient)"/>
    <circle cx="8" cy="32" r="4" fill="url(#logoGradient)"/>
    <circle cx="56" cy="32" r="4" fill="url(#logoGradient)"/>
    <!-- Diagonal connections -->
    <line x1="25" y1="25" x2="15" y2="15" stroke="url(#logoGradient)" stroke-width="1.5" stroke-linecap="round" opacity="0.7"/>
    <line x1="39" y1="25" x2="49" y2="15" stroke="url(#logoGradient)" stroke-width="1.5" stroke-linecap="round" opacity="0.7"/>
    <line x1="25" y1="39" x2="15" y2="49" stroke="url(#logoGradient)" stroke-width="1.5" stroke-linecap="round" opacity="0.7"/>
    <line x1="39" y1="39" x2="49" y2="49" stroke="url(#logoGradient)" stroke-width="1.5" stroke-linecap="round" opacity="0.7"/>
    <!-- Corner nodes -->
    <circle cx="15" cy="15" r="3" fill="url(#logoGradient)" opacity="0.7"/>
    <circle cx="49" cy="15" r="3" fill="url(#logoGradient)" opacity="0.7"/>
    <circle cx="15" cy="49" r="3" fill="url(#logoGradient)" opacity="0.7"/>
    <circle cx="49" cy="49" r="3" fill="url(#logoGradient)" opacity="0.7"/>
</svg>
